<?xml version="1.0" encoding="utf-8"?>
<!-- Generator: Adobe Illustrator 19.1.0, SVG Export Plug-In . SVG Version: 6.00 Build 0)  -->
<svg version="1.1" id="Layer_1" xmlns="http://www.w3.org/2000/svg" xmlns:xlink="http://www.w3.org/1999/xlink" x="0px" y="0px"
	 viewBox="0 0 1659 1666.7" style="enable-background:new 0 0 1659 1666.7;" xml:space="preserve">
<style type="text/css">
	.st0{fill-rule:evenodd;clip-rule:evenodd;fill:#FF6500;}
	.st1{fill:#1E8BC3;}
</style>
<g>
	<path class="st0" d="M1528.6,938.4c0-0.2,0.1-0.4,0.1-0.5c0.9-6.3,1.8-12.7,2.6-19.1c0.1-0.5,0.1-1.1,0.2-1.6
		c0.2-1.8,0.4-3.6,0.6-5.5c0.1-0.8,0.2-1.6,0.3-2.4c0.2-1.8,0.4-3.5,0.5-5.3c0.1-0.7,0.1-1.4,0.2-2.2c0.3-3.2,0.6-6.4,0.8-9.5
		c0.1-1,0.2-2,0.2-3c0.1-1.5,0.2-3,0.3-4.5c0.1-1.2,0.2-2.4,0.3-3.7c0.1-1.4,0.2-2.8,0.3-4.3c0.1-1.4,0.2-2.8,0.2-4.2
		c0.1-1.3,0.1-2.5,0.2-3.8c0.1-2.5,0.2-5,0.3-7.5c0-1,0.1-2.1,0.1-3.1c0.1-1.7,0.1-3.5,0.2-5.2c0-1.1,0.1-2.2,0.1-3.3
		c0-1.8,0.1-3.6,0.1-5.3c0-1,0-1.9,0-2.9c0-2.6,0-5.3,0.1-7.9c0-0.1,0-0.2,0-0.3c0,0,0,0,0,0c0,0,0,0,0,0c0-0.1,0-0.2,0-0.2
		c0-2.6,0-5.3-0.1-7.9c0-0.9,0-1.9,0-2.8c0-1.8-0.1-3.6-0.1-5.4c0-1,0-2.1-0.1-3.1c-0.1-2-0.1-3.9-0.2-5.9c0-1.2-0.1-2.4-0.1-3.5
		c-0.1-2.1-0.2-4.2-0.3-6.3c-0.1-1.3-0.1-2.5-0.2-3.8c-0.1-1.4-0.2-2.8-0.2-4.2c-0.1-1.4-0.2-2.7-0.3-4.1c-0.1-1.3-0.2-2.5-0.3-3.8
		c-0.2-2.7-0.4-5.4-0.6-8.1c-0.1-1-0.2-1.9-0.2-2.9c-0.1-1.6-0.3-3.3-0.4-4.9c-0.1-0.9-0.2-1.9-0.3-2.8c-0.2-1.7-0.3-3.4-0.5-5.1
		c-0.1-0.7-0.2-1.4-0.2-2.2c-0.6-6-1.4-12-2.2-17.9c-0.1-0.4-0.1-0.8-0.2-1.2c-0.3-2-0.6-4-0.8-6.1c0-0.2-0.1-0.4-0.1-0.7
		c-49.7-342.7-343.9-605.9-699.5-605.9c-352.4,0-644.5,258.5-698.1,596.7c0,0.2-0.1,0.4-0.1,0.5c-0.3,2.1-0.7,4.3-1,6.5
		c0,0.2-0.1,0.4-0.1,0.5c-0.9,6.3-1.8,12.7-2.6,19.1c-0.1,0.5-0.1,1.1-0.2,1.6c-0.2,1.8-0.4,3.6-0.6,5.5c-0.1,0.8-0.2,1.6-0.3,2.4
		c-0.2,1.8-0.4,3.5-0.5,5.3c-0.1,0.7-0.1,1.4-0.2,2.2c-0.3,3.2-0.6,6.3-0.8,9.5c-0.1,1-0.2,2-0.2,3c-0.1,1.5-0.2,3-0.3,4.5
		c-0.1,1.2-0.2,2.4-0.3,3.7c-0.1,1.4-0.2,2.8-0.3,4.3c-0.1,1.4-0.2,2.8-0.2,4.2c-0.1,1.3-0.1,2.5-0.2,3.8c-0.1,2.5-0.2,5-0.3,7.5
		c0,1-0.1,2.1-0.1,3.1c-0.1,1.7-0.1,3.5-0.2,5.2c0,1.1-0.1,2.2-0.1,3.3c0,1.8-0.1,3.6-0.1,5.3c0,1,0,1.9,0,2.9c0,2.6,0,5.3,0,7.9
		c0,0.1,0,0.2,0,0.3c0,0,0,0,0,0c0,0,0,0,0,0c0,0.1,0,0.2,0,0.2c0,2.6,0,5.3,0,7.9c0,0.9,0,1.9,0,2.8c0,1.8,0.1,3.6,0.1,5.4
		c0,1,0,2.1,0.1,3.1c0.1,2,0.1,3.9,0.2,5.9c0,1.2,0.1,2.4,0.1,3.5c0.1,2.1,0.2,4.2,0.3,6.3c0.1,1.3,0.1,2.5,0.2,3.8
		c0.1,1.4,0.2,2.8,0.2,4.2c0.1,1.4,0.2,2.7,0.3,4.1c0.1,1.3,0.2,2.5,0.3,3.8c0.2,2.7,0.4,5.4,0.6,8.1c0.1,1,0.2,1.9,0.2,2.9
		c0.1,1.6,0.3,3.3,0.4,4.9c0.1,0.9,0.2,1.9,0.3,2.8c0.2,1.7,0.3,3.4,0.5,5.1c0.1,0.7,0.2,1.4,0.2,2.2c0.6,6,1.4,12,2.2,17.9
		c0.1,0.4,0.1,0.8,0.2,1.2c0.3,2,0.6,4.1,0.8,6.1c0,0.2,0.1,0.4,0.1,0.7c49.7,342.7,343.9,605.9,699.5,605.9
		c352.4,0,644.5-258.5,698.1-596.7c0-0.2,0.1-0.4,0.1-0.5C1528,942.8,1528.3,940.6,1528.6,938.4z M554.3,1282.7
		C554.3,1282.6,554.3,1282.6,554.3,1282.7c-138.2-85.6-234-233.5-248.3-404.8c0-0.3-0.1-0.7-0.1-1c-0.2-2.6-0.4-5.2-0.6-7.8
		c0-0.2,0-0.4,0-0.6c-0.2-2.9-0.4-5.7-0.5-8.6c0,0,0,0,0,0c-0.1-2.7-0.2-5.3-0.3-8c0-0.7,0-1.3-0.1-2c-0.1-2.1-0.1-4.2-0.2-6.4
		c0-0.7,0-1.4,0-2.1c0-2.7-0.1-5.4-0.1-8.1c0-2.8,0-5.5,0.1-8.3c0-0.7,0-1.4,0-2.1c0-2.2,0.1-4.5,0.2-6.7c0-0.6,0-1.2,0.1-1.8
		c0.2-5.7,0.5-11.3,0.9-17c0-0.4,0.1-0.8,0.1-1.2c0.2-2.6,0.4-5.2,0.6-7.8c0-0.2,0-0.4,0.1-0.7c0.5-5.9,1.1-11.7,1.8-17.5
		c0-0.1,0-0.2,0-0.3c20.1-168.6,119.5-312.8,259.7-393.9c0,0,0,0,0-0.1c77.1-44.6,166.6-70.1,262-70.1
		c100.9,0,195.2,28.6,275.2,78.1c0,0,0,0.1,0,0.1c138.3,85.5,234.1,233.4,248.4,404.7c0,0.3,0.1,0.7,0.1,1c0.2,2.6,0.4,5.2,0.6,7.8
		c0,0.2,0,0.4,0,0.6c0.2,2.9,0.4,5.7,0.5,8.6c0,0,0,0,0,0c0.1,2.7,0.2,5.3,0.3,8c0,0.7,0,1.3,0.1,2c0.1,2.1,0.1,4.2,0.2,6.4
		c0,0.7,0,1.4,0,2.1c0,2.7,0.1,5.4,0.1,8.1c0,2.8,0,5.5-0.1,8.3c0,0.7,0,1.4,0,2.1c0,2.2-0.1,4.5-0.2,6.7c0,0.6,0,1.2-0.1,1.8
		c-0.2,5.7-0.5,11.3-0.9,17c0,0.4-0.1,0.8-0.1,1.2c-0.2,2.6-0.4,5.2-0.6,7.8c0,0.2,0,0.4-0.1,0.7c-0.5,5.9-1.1,11.7-1.8,17.5
		c0,0.1,0,0.2,0,0.3c-20.1,168.6-119.5,312.8-259.7,393.9c0,0,0,0,0,0.1c-77.1,44.6-166.6,70.1-262,70.1
		C728.6,1360.7,634.3,1332.2,554.3,1282.7z"/>
	<g>
		<g>
			<path class="st1" d="M569.4,783.5c-57.9,0-104.4,46.5-104.4,104.4c0,56,96.8,172.8,101.6,177.5c0.9,0.9,1.9,1.9,2.8,1.9
				s1.9-0.9,2.8-1.9C576,1060.8,673.8,944,673.8,888C672.8,830,626.3,783.5,569.4,783.5z M569.4,927.8c-22.8,0-40.8-18-40.8-40.8
				c0-22.8,18-40.8,40.8-40.8s40.8,18,40.8,40.8C610.2,909.8,591.2,927.8,569.4,927.8z"/>
		</g>
		<g>
			<path class="st1" d="M1089.6,506.3c-57.9,0-104.4,46.5-104.4,104.4c0,56,96.8,172.8,101.6,177.5c0.9,0.9,1.9,1.9,2.8,1.9
				s1.9-0.9,2.8-1.9c3.8-4.7,101.6-121.5,101.6-177.5C1194.1,553.8,1147.6,506.3,1089.6,506.3z M1089.6,651.6
				c-22.8,0-40.8-18-40.8-40.8c0-22.8,18-40.8,40.8-40.8c22.8,0,40.8,18,40.8,40.8C1130.5,633.5,1112.4,651.6,1089.6,651.6z"/>
		</g>
		<g>
			<g>
				<path class="st1" d="M1089.6,847.1c-5.7,0-9.5-3.8-9.5-9.5v-4.7c0-5.7,3.8-9.5,9.5-9.5s9.5,3.8,9.5,9.5v4.7
					C1099.1,843.3,1095.3,847.1,1089.6,847.1z"/>
			</g>
			<g>
				<path class="st1" d="M1089.6,901.3h-4.7c-5.7,0-9.5-3.8-9.5-9.5c0-3.8,1.9-7.6,5.7-8.5c1.9-2.8,4.7-5.7,8.5-5.7
					c5.7,0,9.5,3.8,9.5,9.5v4.7C1099.1,896.5,1095.3,901.3,1089.6,901.3z"/>
			</g>
			<g>
				<path class="st1" d="M886.5,882.3h-8.5c-4.7,0-9.5,3.8-9.5,9.5c0,4.7,4.7,9.5,9.5,9.5h8.5c5.7,0,9.5-4.7,9.5-9.5
					C896,886.1,891.2,882.3,886.5,882.3z M937.7,882.3h-8.5c-5.7,0-9.5,3.8-9.5,9.5c0,4.7,3.8,9.5,9.5,9.5h8.5
					c4.7,0,9.5-4.7,9.5-9.5C947.2,886.1,943.4,882.3,937.7,882.3z M990,882.3h-8.5c-4.7,0-9.5,3.8-9.5,9.5c0,4.7,4.7,9.5,9.5,9.5
					h8.5c5.7,0,9.5-4.7,9.5-9.5C999.4,886.1,995.7,882.3,990,882.3z M1042.2,882.3h-8.5c-4.7,0-9.5,3.8-9.5,9.5
					c0,4.7,4.7,9.5,9.5,9.5h8.5c4.7,0,9.5-4.7,9.5-9.5C1051.7,886.1,1046.9,882.3,1042.2,882.3z"/>
			</g>
			<g>
				<path class="st1" d="M843.7,891.8c0,3.8-1.9,6.6-5.7,8.5c-0.9,2.8-4.7,5.7-8.5,5.7l0,0c-4.7,0-9.5-3.8-9.5-9.5v-4.7
					c0-2.8,0.9-4.7,2.8-6.6c1.9-1.9,3.8-2.8,6.6-2.8h4.7C839,882.3,843.7,886.1,843.7,891.8z"/>
			</g>
			<g>
				<path class="st1" d="M840.9,950.6c0-5.7-4.7-9.5-9.5-9.5s-9.5,4.7-9.5,9.5V962c0,4.7,4.7,9.5,9.5,9.5l0,0c2.8,0,4.7-0.9,6.6-2.8
					s2.8-4.7,2.8-6.6V950.6z M840.9,1010.4c-0.9-0.9-2.8-2.8-3.8-2.8C839,1007.6,839.9,1008.5,840.9,1010.4z"/>
			</g>
			<g>
				<path class="st1" d="M848.5,1020.9c0,5.7-4.7,9.5-9.5,9.5h-4.7c-4.7,0-9.5-3.8-9.5-9.5v-4.7c0-4.7,3.8-9.5,9.5-9.5
					c0.9,0,1.9,0,3.8,0.9c1.9,0.9,2.8,1.9,3.8,2.8l0.9,0.9c0,0,0,0.9,0.9,0.9l0,0C846.6,1014.2,848.5,1017.1,848.5,1020.9z"/>
			</g>
			<g>
				<path class="st1" d="M890.3,1011.4h-8.5c-4.7,0-9.5,4.7-9.5,9.5c0,5.7,4.7,9.5,9.5,9.5h8.5c4.7,0,9.5-3.8,9.5-9.5
					C899.8,1016.1,895,1011.4,890.3,1011.4z M940.6,1011.4H932c-5.7,0-9.5,4.7-9.5,9.5c0,5.7,3.8,9.5,9.5,9.5h8.5
					c5.7,0,9.5-3.8,9.5-9.5C950.1,1016.1,946.3,1011.4,940.6,1011.4z M991.9,1011.4h-8.5c-5.7,0-9.5,4.7-9.5,9.5
					c0,5.7,3.8,9.5,9.5,9.5h8.5c5.7,0,9.5-3.8,9.5-9.5C1001.3,1016.1,997.5,1011.4,991.9,1011.4z M1043.1,1011.4h-8.5
					c-4.7,0-9.5,4.7-9.5,9.5c0,5.7,4.7,9.5,9.5,9.5h8.5c5.7,0,9.5-3.8,9.5-9.5C1052.6,1016.1,1047.9,1011.4,1043.1,1011.4z"/>
			</g>
			<g>
				<path class="st1" d="M1099.1,1020.9v4.7c0,5.7-4.7,9.5-9.5,9.5c-3.8,0-7.6-1.9-8.5-5.7c-0.9,0-0.9,0-1.9-0.9
					c0,0-0.9-0.9-1.9-0.9c0,0-0.9-0.9-0.9-1.9s-0.9-0.9-0.9-1.9s0-0.9-0.9-1.9c0-0.9,0-0.9,0-1.9c0-4.7,4.7-9.5,9.5-9.5h4.7
					C1095.3,1011.4,1099.1,1016.1,1099.1,1020.9z"/>
			</g>
			<g>
				<path class="st1" d="M1089.6,1071.2c-4.7,0-9.5,4.7-9.5,9.5v11.4c0,4.7,4.7,9.5,9.5,9.5c4.7,0,9.5-4.7,9.5-9.5v-11.4
					C1099.1,1075,1095.3,1071.2,1089.6,1071.2z"/>
			</g>
			<g>
				<path class="st1" d="M1099.1,1146.2v4.7c0,4.7-4.7,9.5-9.5,9.5h-4.7c-4.7,0-9.5-4.7-9.5-9.5c0-3.8,1.9-7.6,5.7-8.5
					c0-0.9,0.9-1.9,1.9-2.8l0.9-0.9c0.9-0.9,1.9-0.9,2.8-1.9c0.9,0,0.9,0,1.9-0.9c0.9,0,0.9,0,1.9,0
					C1095.3,1136.7,1099.1,1141.5,1099.1,1146.2z"/>
			</g>
			<g>
				<path class="st1" d="M1037.4,1160.4h-9.5c-4.7,0-9.5-4.7-9.5-9.5c0-4.7,4.7-9.5,9.5-9.5h9.5c5.7,0,9.5,4.7,9.5,9.5
					C1046.9,1155.7,1042.2,1160.4,1037.4,1160.4z M979.5,1160.4H970c-5.7,0-9.5-4.7-9.5-9.5c0-4.7,3.8-9.5,9.5-9.5h9.5
					c4.7,0,9.5,4.7,9.5,9.5C989,1155.7,984.3,1160.4,979.5,1160.4z M921.6,1160.4h-9.5c-4.7,0-9.5-4.7-9.5-9.5
					c0-4.7,4.7-9.5,9.5-9.5h9.5c4.7,0,9.5,4.7,9.5,9.5C931.1,1155.7,926.3,1160.4,921.6,1160.4z M863.7,1160.4h-9.5
					c-4.7,0-9.5-4.7-9.5-9.5c0-4.7,4.7-9.5,9.5-9.5h9.5c4.7,0,9.5,4.7,9.5,9.5C873.2,1155.7,868.4,1160.4,863.7,1160.4z
					 M805.8,1160.4h-9.5c-5.7,0-9.5-4.7-9.5-9.5c0-4.7,3.8-9.5,9.5-9.5h9.5c4.7,0,9.5,4.7,9.5,9.5
					C815.3,1155.7,810.5,1160.4,805.8,1160.4z M747.8,1160.4h-9.5c-4.7,0-9.5-4.7-9.5-9.5c0-4.7,4.7-9.5,9.5-9.5h9.5
					c4.7,0,9.5,4.7,9.5,9.5C757.3,1155.7,752.6,1160.4,747.8,1160.4z M689.9,1160.4h-9.5c-4.7,0-9.5-4.7-9.5-9.5
					c0-4.7,4.7-9.5,9.5-9.5h9.5c5.7,0,9.5,4.7,9.5,9.5C699.4,1155.7,694.7,1160.4,689.9,1160.4z M632,1160.4h-9.5
					c-4.7,0-9.5-4.7-9.5-9.5c0-4.7,4.7-9.5,9.5-9.5h9.5c5.7,0,9.5,4.7,9.5,9.5C641.5,1155.7,636.8,1160.4,632,1160.4z"/>
			</g>
			<g>
				<path class="st1" d="M583.6,1151c0,4.7-4.7,9.5-9.5,9.5h-4.7c-4.7,0-9.5-4.7-9.5-9.5v-4.7c0-4.7,4.7-9.5,9.5-9.5
					c3.8,0,7.6,1.9,8.5,5.7c0.9,0,1.9,0.9,2.8,1.9l0.9,0.9l0.9,0.9c0,0,0.9,0.9,0.9,1.9c0,0.9,0,0.9,0.9,1.9
					C582.6,1150,583.6,1150,583.6,1151z"/>
			</g>
			<g>
				<path class="st1" d="M569.4,1108.2c-5.7,0-9.5-3.8-9.5-9.5v-4.7c0-5.7,3.8-9.5,9.5-9.5c5.7,0,9.5,3.8,9.5,9.5v4.7
					C578.9,1104.4,574.1,1108.2,569.4,1108.2z"/>
			</g>
		</g>
	</g>
</g>
</svg>
